<?xml version="1.0" encoding="utf-8"?>
<!-- Generator: Adobe Illustrator 26.5.0, SVG Export Plug-In . SVG Version: 6.00 Build 0)  -->
<svg version="1.1" id="Layer_1" xmlns="http://www.w3.org/2000/svg" xmlns:xlink="http://www.w3.org/1999/xlink" x="0px" y="0px"
	 viewBox="0 0 841.89 283.46" style="enable-background:new 0 0 841.89 283.46;" xml:space="preserve">
<style type="text/css">
	.st0{fill:#E40521;}
	.st1{fill:#706F6F;}
	.st2{fill:url(#SVGID_1_);}
	.st3{fill:url(#SVGID_00000021120100598851711200000001641978545472295603_);}
	.st4{fill:url(#SVGID_00000124134063854234867990000003725766009346944415_);}
	.st5{fill:#2B5A92;}
	.st6{fill:#E64248;}
	.st7{fill:#7AA93E;}
	.st8{fill:#F5A257;}
	.st9{stroke:#000000;stroke-width:0.3;stroke-miterlimit:10;}
	.st10{stroke:#000000;stroke-width:0.2007;stroke-miterlimit:10;}
	.st11{stroke:#000000;stroke-width:0.2493;stroke-miterlimit:10;}
	.st12{fill:#FFFFFF;}
	.st13{fill:#004785;}
	.st14{fill:#83BB26;}
	.st15{fill:#00838E;}
	.st16{fill:url(#SVGID_00000005225155184004423540000018219886500970989748_);}
	.st17{fill:url(#SVGID_00000091009666696952956190000017019182992739472556_);}
	.st18{fill:#0095DB;}
	.st19{fill:url(#SVGID_00000168079306601116024510000003568316313114429085_);}
	.st20{fill:url(#SVGID_00000164472509268858537490000005205118992384373426_);}
	.st21{fill:#878787;}
	
		.st22{fill:none;stroke:url(#SVGID_00000073684863652672681560000007202632434776140964_);stroke-width:6;stroke-linecap:round;stroke-miterlimit:10;}
	
		.st23{fill:none;stroke:url(#SVGID_00000060747664700619337270000007504714269519303818_);stroke-width:6;stroke-linecap:round;stroke-miterlimit:10;}
	.st24{fill:none;stroke:#83BB26;stroke-width:6;stroke-miterlimit:10;}
	.st25{fill:none;stroke:#0095DB;stroke-width:6;stroke-miterlimit:10;}
	
		.st26{fill:none;stroke:url(#SVGID_00000105393092334704096000000015180302010044979627_);stroke-width:6;stroke-linecap:round;stroke-miterlimit:10;}
	.st27{fill:#2A81B8;}
	.st28{fill:#616160;}
	.st29{clip-path:url(#SVGID_00000039131161111008238090000014254866838233298876_);}
	.st30{fill:none;stroke:#1DBADF;stroke-width:7.5533;stroke-linecap:round;stroke-miterlimit:10;}
	.st31{fill:none;stroke:#009FCA;stroke-width:7.5533;stroke-linecap:round;stroke-miterlimit:10;}
	.st32{fill:none;stroke:#454D92;stroke-width:7.5533;stroke-linecap:round;stroke-miterlimit:10;}
	.st33{fill:none;stroke:#2A81B8;stroke-width:7.5533;stroke-linecap:round;stroke-miterlimit:10;}
	.st34{fill:none;}
	.st35{fill:none;stroke:#454D92;stroke-width:5.4856;stroke-linecap:round;stroke-linejoin:round;stroke-miterlimit:10;}
	.st36{fill:none;stroke:#1DBADF;stroke-width:5.4856;stroke-linecap:round;stroke-linejoin:round;stroke-miterlimit:10;}
	.st37{fill:none;stroke:#2A81B8;stroke-width:5.4856;stroke-linecap:round;stroke-linejoin:round;stroke-miterlimit:10;}
	.st38{fill:none;stroke:#009FCA;stroke-width:5.4856;stroke-linecap:round;stroke-linejoin:round;stroke-miterlimit:10;}
	.st39{fill:none;stroke:#009FCA;stroke-width:5.4856;stroke-linecap:round;stroke-miterlimit:10;}
	.st40{fill:#31B7BC;}
	.st41{fill:#3EA3DC;}
</style>
<g>
	<g>
		<path class="st13" d="M399.55,102.05c1.51,5.84,4.34,11.38,8.31,16.26c4.76,5.78,9.75,9.39,17.34,12.52
			c-1.75,1.99-2.35,2.95-3.73,5.78c-6.86-3.61-11.38-6.98-15.71-11.98c-3.79-4.33-6.56-9.15-8.73-15.17
			c-1.81,7.1-5.3,13.01-10.72,18.24c-3.85,3.73-8.07,6.44-13.79,8.97c-1.14-2.47-1.75-3.31-3.55-5.3
			c7.29-2.95,12.22-6.26,16.2-10.96c4.21-4.94,6.38-10.36,7.47-18.36h-15.05c-3.55,0-5.36,0.12-7.23,0.42v-6.44
			c1.75,0.3,3.85,0.42,7.29,0.42h15.54c0.12-2.95,0.18-4.46,0.18-6.8c0-2.89-0.12-4.94-0.42-6.62h6.74c-0.3,2.11-0.42,3.25-0.42,6.8
			c-0.06,2.83-0.06,4.33-0.18,6.62h16.86c3.31,0,5.42-0.12,7.23-0.42v6.44c-2.05-0.3-3.97-0.42-7.17-0.42H399.55z"/>
		<path class="st13" d="M431.76,97.17c3.43,2.29,5.54,4.09,8.13,6.8l-3.31,4.21c-3.25-3.55-5-5.06-8.01-6.98L431.76,97.17z
			 M440.73,117.22c-1.81,6.62-3.43,11.14-5.96,16.62c-0.36,0.72-0.36,0.72-0.66,1.38c-0.24,0.6-0.3,0.72-0.6,1.38l-4.7-3.97
			c0.78-0.84,1.38-1.81,2.47-4.03c2.41-5.06,3.67-8.67,5.12-14.39L440.73,117.22z M439.95,96.09c0.9,0.18,1.39,0.18,3.43,0.18
			c0.72-0.84,1.26-1.5,1.99-2.41c-1.32-1.45-2.47-2.53-3.97-3.73l-3.31,3.61c-2.35-3.01-4.64-5.12-8.01-7.47l3.61-3.67
			c2.83,2.11,5.18,4.16,7.11,6.14l1.38-2.41c0.72,0.54,0.9,0.72,1.44,1.2c1.63-2.05,2.59-3.67,3.55-5.78l3.13,2.17
			c-1.69,2.35-3.01,4.09-4.33,5.78c0.72,0.72,0.9,0.9,1.45,1.5c2.11-2.89,2.71-3.73,3.85-5.9l3.13,2.35c-3.61,4.58-5,6.26-7.11,8.55
			c2.11-0.12,2.77-0.12,4.58-0.3c-0.48-1.14-0.66-1.5-1.38-2.65l2.77-1.2c1.21,1.81,2.35,4.21,3.37,6.92l-3.13,1.57
			c-0.24-0.84-0.36-1.2-0.54-1.75c-1.08,0.12-1.08,0.12-3.13,0.3v8.25c0,1.63,0.06,2.53,0.24,3.73h-4.16
			c0.18-1.14,0.24-2.29,0.24-3.73V99.4c-0.84,0.06-0.84,0.06-3.67,0.24c-0.78,0.06-1.45,0.12-2.11,0.24L439.95,96.09z
			 M445.24,101.87c-0.72,3.79-1.2,5.3-2.89,9.09c-0.96-0.9-1.81-1.32-3.25-1.81c1.69-2.71,2.35-4.58,2.89-8.13L445.24,101.87z
			 M447.77,128.6c-0.36,0.9-0.54,1.32-1.02,2.47l-5.48-0.84c2.23-4.15,3.19-6.98,3.97-11.56c1.02,0.12,2.41,0.18,4.76,0.18h24.81
			v-2.35h-24.99c-2.65,0-3.91,0.06-5.72,0.24v-4.21c1.5,0.24,2.77,0.3,5.72,0.3h24.45c2.59,0,4.21-0.06,5.78-0.18
			c-0.12,1.2-0.18,1.87-0.18,3.25v3.31c0,1.51,0.06,2.17,0.18,3.37c-1.44-0.12-3.01-0.18-5.6-0.18h-24.69
			c-0.3,1.14-0.36,1.45-0.66,2.47h28.78c2.11,0,3.37-0.06,4.64-0.18c-0.18,0.66-0.18,0.66-0.6,4.21c-0.9,6.92-1.87,7.89-8.19,7.89
			c-2.35,0-4.58-0.12-7.04-0.42c-0.36-2.11-0.6-2.77-1.51-4.4c3.37,0.54,5.6,0.78,7.53,0.78c3.43,0,3.73-0.36,4.09-4.15H447.77z
			 M452.53,109.39c-0.36-2.95-0.78-4.76-1.75-7.59l3.01-0.84c0.96,2.65,1.38,4.34,1.93,7.35L452.53,109.39z M468.06,95.97
			c1.14,0.12,1.69,0.12,2.89,0.12c1.21-1.14,1.45-1.38,2.35-2.47c-1.5-1.75-2.71-2.83-4.94-4.58v1.87
			c-1.02-0.12-1.93-0.18-3.67-0.18h-5.66c-1.57,0-2.59,0.06-3.55,0.18v-3.43c0.84,0.12,1.87,0.18,3.61,0.18h5.9
			c1.51,0,2.47-0.06,3.37-0.24v1.38l1.81-2.89c0.6,0.54,0.78,0.72,1.26,1.14c1.57-1.93,2.59-3.43,3.61-5.48l3.19,2.29
			c-1.75,2.23-3.19,4.03-4.46,5.42c0.96,0.96,1.14,1.14,1.69,1.75c2.05-2.65,2.65-3.43,4.03-5.72l3.19,2.29
			c-0.66,0.78-0.66,0.78-3.01,3.55c-1.14,1.39-3.01,3.43-4.46,4.82c2.29-0.06,3.13-0.12,4.88-0.24c-0.48-0.9-0.72-1.32-1.5-2.41
			l2.77-1.45c1.93,2.83,2.65,4.09,3.91,6.98l-3.13,1.63c-0.3-0.96-0.42-1.32-0.72-1.93c-1.57,0.18-2.71,0.3-3.31,0.36v8.49
			c0,1.57,0.06,2.65,0.24,3.73h-4.15c0.18-1.14,0.24-2.23,0.24-3.73v-8.13c-0.78,0.06-0.78,0.06-3.73,0.24
			c-0.84,0.06-1.51,0.12-2.17,0.24L468.06,95.97z M467.58,85.91c-1.02-0.12-2.05-0.18-3.31-0.18h-4.52c-1.2,0-2.35,0.06-3.31,0.18
			V82.6c0.9,0.18,1.93,0.24,3.37,0.24h4.46c1.38,0,2.35-0.06,3.31-0.24V85.91z M456.74,104.76c0-1.33-0.06-2.11-0.12-3.07
			c0.9,0.12,2.05,0.18,3.49,0.18h3.97c1.44,0,2.59-0.06,3.49-0.18c-0.12,0.9-0.12,1.45-0.12,3.07v3.25c0,1.63,0,2.29,0.12,3.13
			c-0.9-0.06-1.99-0.12-3.49-0.12h-3.97c-1.57,0-2.29,0.06-3.49,0.18c0.06-0.9,0.12-1.69,0.12-3.19V104.76z M467.4,95.54
			c-1.51-0.18-2.05-0.18-3.31-0.18H460c-1.26,0-1.81,0-3.25,0.18v-3.13c0.9,0.12,1.93,0.18,3.31,0.18h4.03
			c1.38,0,2.41-0.06,3.31-0.18V95.54z M467.34,100.06c-1.08-0.12-2.11-0.18-3.25-0.18h-4.03c-1.21,0-2.17,0.06-3.25,0.18v-3.13
			c0.9,0.12,1.99,0.18,3.31,0.18h3.91c1.32,0,2.41-0.06,3.31-0.18V100.06z M460.06,108.07h4.09v-3.43h-4.09V108.07z M473.42,101.99
			c-0.66,3.79-1.26,5.72-2.71,8.73c-1.33-1.14-1.93-1.51-3.19-1.87c1.5-2.53,2.11-4.4,2.65-7.89L473.42,101.99z M482.15,100.6
			c0.78,3.19,1.69,5.24,3.25,7.71c-1.45,0.6-2.29,1.08-3.31,1.87c-1.45-3.07-2.17-5.06-2.95-8.49L482.15,100.6z"/>
		<path class="st13" d="M535.8,129.5c3.91,0,5.66-0.06,7.29-0.3v5.36c-1.99-0.24-3.91-0.36-7.22-0.36h-37.39v2.83h-5.72
			c0.24-2.35,0.36-4.09,0.36-7.53V90.79c0-3.01-0.06-4.88-0.24-6.74c1.93,0.24,3.61,0.3,7.53,0.3h34.32c3.55,0,5.42-0.12,7.41-0.36
			v5.36c-1.81-0.24-3.73-0.3-7.29-0.3h-36.37v40.46H535.8z M519.36,120.95c0,2.59,0,3.67,0.18,5c-1.45-0.18-3.13-0.24-5.42-0.24
			h-6.92c-2.35,0-3.91,0.06-5.36,0.24c0.12-1.57,0.18-2.41,0.18-5v-6.08c0-2.53-0.06-3.55-0.18-5c1.2,0.18,2.47,0.24,4.52,0.24h8.61
			c2.47,0,3.31-0.06,4.58-0.18c-0.18,1.45-0.18,2.59-0.18,5.3V120.95z M506.77,114.33v7.11h7.89v-7.11H506.77z M508.4,97.11
			c0-1.81-0.06-3.31-0.24-4.7c1.87,0.18,3.13,0.24,5.72,0.24h14.09c2.71,0,4.4-0.06,5.72-0.24c-0.12,1.33-0.18,2.71-0.18,4.7v4.82
			c0,2.23,0.06,3.37,0.18,4.94c-1.81-0.18-3.49-0.24-6.32-0.24h-12.83c-2.77,0-4.58,0.06-6.38,0.24c0.18-1.57,0.24-2.95,0.24-4.94
			V97.11z M513.4,96.93v5.42h15.05v-5.42H513.4z M540.85,120.95c0,2.23,0.06,3.61,0.18,5c-1.45-0.18-3.13-0.24-5.42-0.24h-7.04
			c-2.35,0-3.97,0.06-5.42,0.24c0.12-1.45,0.18-2.53,0.18-5v-6.08c0-2.41-0.06-3.37-0.18-4.94c1.33,0.12,2.59,0.18,4.58,0.18h8.73
			c2.05,0,3.31-0.06,4.58-0.24c-0.12,1.38-0.18,3.07-0.18,5.36V120.95z M528.03,114.33v7.11h8.01v-7.11H528.03z"/>
		<path class="st13" d="M556.44,113.07c-2.59,0-4.4,0.12-6.14,0.36v-4.7c1.57,0.3,3.13,0.36,6.14,0.36h42.75
			c2.65,0,4.21-0.12,5.3-0.3v4.52c-2.29-0.18-4.03-0.24-6.44-0.24H583.9v2.47h9.75c2.53,0,4.52-0.06,5.84-0.24
			c-0.12,1.5-0.18,3.25-0.18,5.6v11.08c0,2.11,0.12,4.28,0.3,5.6h-5.36v-2.35h-33.72v2.29h-5.3c0.18-1.63,0.3-3.49,0.3-5.6v-11.56
			c0-1.57-0.06-3.19-0.18-5c1.26,0.12,3.49,0.18,5.9,0.18h8.85c0.12-0.9,0.12-1.26,0.18-2.47H556.44z M572.7,94.04
			c2.17,0,3.07-0.06,3.85-0.24v3.43c-1.38-0.12-2.23-0.18-3.61-0.18h-2.83c2.05,1.75,3.55,2.59,6.56,3.61
			c-0.96,0.84-1.57,1.45-2.29,2.65c1.45-0.06,1.69-0.06,2.53-0.18v3.91c-1.14-0.18-3.01-0.24-4.7-0.24h-15.59
			c-2.05,0-2.53,0-4.64,0.12c0.12-1.14,0.18-2.77,0.18-4.64V88.26c0-1.99-0.06-3.61-0.18-5.42c1.2,0.18,2.71,0.24,4.88,0.24h14.63
			c2.29,0,3.91-0.06,5.48-0.3v4.03c-2.05-0.12-3.13-0.18-5-0.18h-6.98c-0.42,0.96-0.54,1.2-0.96,2.11h7.47
			c1.87,0,2.83-0.06,3.97-0.24v3.55c-1.2-0.18-2.11-0.24-3.97-0.24h-1.87c-0.06,1.02-0.12,1.32-0.36,2.23H572.7z M565.72,94.04
			c0.18-0.84,0.24-1.14,0.3-2.23h-3.79c-0.66,0.9-1.02,1.26-2.05,2.17c-0.78-0.9-1.38-1.44-2.47-2.17c1.99-1.69,2.89-2.89,3.67-5.18
			h-4.7v16.68h3.37c-0.66-1.02-1.2-1.63-2.29-2.65c3.97-1.2,5.24-1.93,6.68-3.61h-3.25c-1.38,0-2.23,0.06-3.25,0.18v-3.37
			c0.9,0.12,1.81,0.18,3.19,0.18H565.72z M560.54,118.79v7.22h33.72v-7.22H583.9v1.2c0,1.14,0.3,1.26,2.65,1.26
			c2.95,0,3.13-0.12,3.31-2.17c1.32,0.78,1.99,1.02,3.73,1.45c-0.3,1.69-0.6,2.41-1.45,2.89c-1.02,0.54-3.13,0.78-6.56,0.78
			c-4.82,0-6.2-0.6-6.2-2.77v-2.65h-5.54c-1.38,3.37-3.79,5.24-8.91,6.8c-1.02-1.45-1.75-2.11-3.43-3.25
			c3.91-0.66,6.02-1.62,7.53-3.55H560.54z M560.54,129.32v2.29h33.72v-2.29H560.54z M572.58,103.31c0.24,0,0.24,0,1.38,0
			c-2.95-1.5-4.82-2.89-6.56-4.94c-1.81,2.47-3.55,3.73-6.62,4.94H572.58z M574.81,113.07c-0.12,1.26-0.12,1.51-0.24,2.47h4.82
			v-2.47H574.81z M585.77,86.57c-0.24,2.11-0.78,3.25-2.11,4.52c-1.08,1.02-2.11,1.57-4.21,2.35c-0.9-1.75-1.26-2.17-2.59-3.49
			c3.85-1.08,5.12-2.47,5.12-5.78c0-0.48-0.06-0.9-0.12-1.44c1.32,0.18,2.35,0.24,4.15,0.24h6.62c1.69,0,2.89-0.06,3.97-0.24
			c-0.18,0.96-0.24,1.57-0.24,3.07v2.11c0,0.72,0.3,0.9,1.63,0.9c2.59,0,2.65-0.12,2.89-3.73c1.26,0.66,2.41,1.02,3.97,1.26
			c-0.54,5.24-1.32,5.9-7.47,5.9c-4.28,0-5.24-0.48-5.24-2.71v-2.95H585.77z M601.6,95.72c-0.48,0.42-0.48,0.42-1.57,1.57
			c-1.75,1.81-3.61,3.37-5.9,4.94c3.25,1.08,6.68,1.75,10.84,2.05c-0.96,1.26-1.57,2.23-2.29,3.97c-5.84-1.08-8.85-1.99-12.58-3.79
			c-3.25,1.57-6.44,2.59-10.3,3.43c-0.66-1.69-0.66-1.69-2.05-3.73c3.61-0.6,5.54-1.08,8.43-2.11c-2.11-1.57-3.49-2.95-5.12-5.24
			c-1.5,0.06-1.99,0.12-2.95,0.24v-3.73c1.02,0.18,2.17,0.24,3.85,0.24h13.55c1.99,0,2.77-0.06,3.67-0.24L601.6,95.72z
			 M585.58,96.81c1.26,1.51,2.41,2.41,4.4,3.55c2.29-1.26,3.31-1.99,5.18-3.55H585.58z"/>
		<path class="st13" d="M633.87,115.11c-1.99,0-3.19,0.06-4.33,0.18l0.36,1.14l-3.73,1.33c-0.36-1.57-0.48-2.05-0.84-3.19
			c-3.31,0.72-5.48,1.02-12.22,1.69c-0.96,0.06-1.57,0.18-2.23,0.3l-0.66-4.7c0.9,0.12,1.26,0.12,2.71,0.12
			c2.11-2.11,2.65-2.77,4.4-4.82c-2.17-2.47-4.21-4.4-7.1-6.62l2.89-3.19c0.84,0.72,1.08,0.96,1.75,1.57
			c1.93-2.35,3.49-4.76,4.46-7.04l3.91,2.59c-0.12,0.24-0.12,0.24-0.6,0.84c-0.06,0.06-0.24,0.3-0.42,0.6
			c-1.63,2.29-2.95,4.16-4.4,5.9c1.14,1.14,1.33,1.32,2.05,2.11c2.71-3.73,3.25-4.58,3.91-6.08l3.91,2.77
			c-0.78,0.9-0.78,0.9-1.26,1.51c-2.65,3.49-5.48,6.92-8.01,9.57c2.89-0.24,3.73-0.3,5.72-0.6c-0.6-1.51-0.84-2.05-1.69-3.61
			l3.25-1.38c1.93,3.79,2.29,4.64,3.49,8.13c0.06-0.84,0.06-2.11,0.06-3.61V99.58c0-2.17-0.06-3.01-0.18-4.33
			c1.32,0.12,2.23,0.18,4.7,0.18c0.84-1.57,1.26-2.65,1.69-4.33l4.82,0.78c-0.54,1.2-1.08,2.23-1.81,3.55h2.41
			c2.83,0,3.85-0.06,5-0.18c-0.12,1.14-0.18,2.05-0.18,4.46v0.9l2.77-2.95l1.26,1.26c2.35-2.59,3.61-4.52,4.58-6.86l3.91,2.53
			c-0.78,0.96-0.78,0.96-1.93,2.53c-1.51,1.99-2.59,3.31-3.79,4.64c1.2,1.38,1.45,1.63,2.17,2.47c2.83-3.61,3.91-5.18,4.58-6.8
			l3.97,2.77c-0.6,0.54-0.84,0.84-3.31,3.91c-1.26,1.57-5,5.72-6.38,7.17c3.13-0.24,4.34-0.3,6.14-0.54
			c-0.78-1.63-1.02-2.11-2.05-3.73l3.49-1.5c2.11,3.49,3.43,6.14,4.76,9.57l-3.85,1.63c-0.36-1.26-0.48-1.69-0.84-2.53
			c-2.77,0.48-6.56,0.9-11.8,1.38c-1.14,0.12-1.5,0.18-2.29,0.36l-0.6-4.58c0.72,0.06,0.9,0.06,1.57,0.12
			c1.62-1.63,2.53-2.53,4.03-4.21c-1.87-2.41-3.61-4.16-6.38-6.44v9.94c0,2.83,0,3.61,0.18,4.58c-1.57-0.12-2.53-0.18-5-0.18h-1.39
			v3.79h17.88c3.13,0,5-0.12,6.98-0.36v5.18c-2.17-0.24-4.09-0.36-6.98-0.36H643.2c4.94,3.97,12.64,6.74,22.22,8.07
			c-1.38,1.75-1.93,2.65-2.95,4.94c-4.64-1.02-8.43-2.23-11.92-3.73c-4.88-2.05-7.89-4.03-11.26-7.41c0,0.54,0.06,0.9,0.06,1.14
			c0.06,1.33,0.12,2.53,0.12,3.49v2.05c0,2.77,0.06,3.79,0.36,5.24h-5.9c0.3-1.81,0.36-3.07,0.36-5.3v-1.87c0-1.2,0-1.57,0.18-4.52
			c-3.43,3.55-6.08,5.36-10.48,7.29c-3.25,1.45-6.8,2.59-11.38,3.67c-0.84-2.05-1.51-3.07-3.07-4.76
			c9.69-1.57,16.62-4.27,21.32-8.31h-12.89c-2.83,0-4.76,0.12-6.92,0.36v-5.18c1.81,0.24,3.61,0.36,6.92,0.36h16.32v-3.79H633.87z
			 M657.71,85.37c3.25,0,5.06-0.12,6.92-0.36v5.24c-1.87-0.18-4.03-0.3-6.92-0.3h-9.15c0,1.26,0.06,2.11,0.24,3.19h-5.6
			c0.12-1.02,0.18-1.75,0.18-3.19h-12.7c0,1.69,0.06,2.29,0.18,3.19h-5.6c0.18-1.08,0.18-1.75,0.24-3.19h-7.83
			c-2.83,0-5.06,0.12-6.86,0.3v-5.24c1.93,0.24,3.73,0.36,6.86,0.36h7.83v-0.54c0-1.02-0.06-2.05-0.24-3.49h5.66
			c-0.18,1.39-0.24,2.11-0.24,3.49v0.54h12.7v-0.54c0-1.33-0.06-2.23-0.24-3.49h5.72c-0.18,1.26-0.3,2.29-0.3,3.49v0.54H657.71z
			 M641.33,103.31v-3.97h-7.83v3.97H641.33z M641.33,111.2v-4.21h-7.83v4.21H641.33z"/>
	</g>
</g>
<g>
	<g>
		<path class="st13" d="M372.97,172.67c0-2.75,0.05-4.5,0.15-6.7c-1.5,2.85-2.4,4.3-3.7,6.15c-0.65-2.15-0.85-2.5-1.95-4.65
			c3.05-4.15,4.7-7.2,6.85-12.8c1.1-2.85,2.1-6.45,2.35-8.35l4.4,1.25c-0.45,1.1-0.5,1.3-0.85,2.45c-0.9,3.1-1.8,5.55-3.15,8.7
			v27.45c0,2.75,0.05,4.15,0.25,6.1h-4.65c0.2-1.85,0.3-3.5,0.3-6.05V172.67z M382.02,169.76c0.45,2.8,1,4.4,2.5,7.5
			c0.95-3.1,1.45-5.5,1.9-9.75h-4.7c-1.3,0-1.45,0-3.7,0.1c2.45-3.45,5.35-8.75,7.45-13.65h-2.5c-1.05,0-1.8,0.05-2.6,0.2v-4.15
			c0.8,0.1,1.75,0.15,3.05,0.15h2.55c1.5,0,2.15-0.05,2.85-0.15l1.85,2.05c-0.25,0.35-0.4,0.7-0.75,1.5
			c-1.35,3.2-3.55,7.45-5.4,10.35h2.1c2.2,0,3.15-0.05,4-0.15c-0.15,1.05-0.15,1.25-0.3,2.3c-0.75,6.4-1.75,11-3.2,15.05
			c4,4.4,8.8,5.85,19.2,5.85c2.8,0,4.95-0.1,9.1-0.45c-0.8,1.9-1.1,2.8-1.25,4.4c-3.2,0.1-4.55,0.15-6.2,0.15
			c-12.05,0-17.8-1.6-22.45-6.25c-1.45,2.7-2.55,4.25-5.35,7.5c-0.9-1.55-1.65-2.45-2.85-3.55c2.4-2.25,3.9-4.25,5.5-7.3
			c-1.8-2.8-2.65-4.6-4.7-10.3L382.02,169.76z M398.33,154.01h-2.4c-1.75,0-2.45,0.05-3.75,0.15v-3.85c1.1,0.2,2.05,0.25,3.75,0.25
			h2.4v-0.25c0-1.45-0.05-2.35-0.25-3.4h4.4c-0.15,1.05-0.2,1.9-0.2,3.4v0.25h5.8c1.8,0,2.9-0.05,3.7-0.15
			c-0.1,1.1-0.1,1.45-0.1,3.35v3.65c1.7,0,2.35-0.05,3.45-0.25v4.15c-1.5-0.2-2.25-0.25-3.45-0.25v4c0,1.45,0.05,2.2,0.1,3.1
			c-1.05-0.05-2.1-0.1-3.8-0.1h-5.7v3.2h5.65c2.1,0,3.2-0.05,4.5-0.2v3.85c-1.4-0.15-2.8-0.2-4.55-0.2h-5.6v3.35h7.1
			c1.95,0,3.45-0.1,4.8-0.25v4.05c-1.6-0.15-2.85-0.2-4.8-0.2h-7.1v0.25c0,1.35,0.05,2.3,0.25,3.55h-4.45
			c0.2-1.15,0.25-1.95,0.25-3.5v-0.3h-4.6c-2.05,0-3.25,0.05-4.6,0.2v-4c1.35,0.15,2.8,0.2,4.6,0.2h4.6v-3.35h-2.9
			c-1.8,0-3.15,0.05-4.25,0.2v-3.85c1.1,0.15,2.3,0.2,4.25,0.2h2.9v-3.2h-2.75c-1.45,0-2.35,0.05-3.5,0.15v-3.75
			c1.2,0.15,2.05,0.2,3.6,0.2h2.65v-3.6h-4.45c-1.65,0-2.75,0.05-3.75,0.2v-4.1c1.2,0.2,2.4,0.25,4.8,0.25h3.4V154.01z
			 M407.83,157.41v-3.4h-5.55v3.4H407.83z M402.28,164.67h5.55v-3.6h-5.55V164.67z"/>
		<path class="st13" d="M440.77,149.21c0-1.35-0.1-2.1-0.3-3h5.05c-0.2,0.85-0.3,1.6-0.3,3.1v0.9h13.3c2.45,0,4.25-0.1,5.6-0.3v4.35
			c-1.6-0.2-2.75-0.25-4.55-0.25h-32.4c-0.05,14.75-0.4,20.9-1.6,27.4c-0.9,4.6-1.85,7.4-3.7,10.75c-1.45-1.8-1.95-2.3-3.6-3.6
			c1.5-2.85,2.25-5.4,3-9.6c1.1-6.45,1.55-12.9,1.55-23c0-3.25-0.05-4.4-0.25-6c1.5,0.2,3,0.25,6.05,0.25h12.15V149.21z
			 M442.22,160.71h-8.3c-1.45,0-2.65,0.05-3.8,0.2v-3.9c1,0.15,1.9,0.2,3.75,0.2h8.35c-0.05-1.05-0.1-1.5-0.25-2.2h4.45
			c-0.15,0.65-0.15,0.9-0.2,2.2h9.3c2,0,2.75-0.05,4.2-0.2c-0.1,1.05-0.15,2.05-0.15,3.65v2.9h1.25c1.9,0,2.75-0.05,3.7-0.25v4.15
			c-1.25-0.2-2.2-0.25-3.75-0.25h-1.2v3.15c0,2.1,0,2.6,0.1,3.55c-0.55,0-0.65,0-1.3-0.05l3.65,2.3c-2.85,2.7-4.25,3.8-7.2,5.85
			c3,2.45,5.45,3.9,10,5.9c-1,1.05-1.8,2.05-2.95,3.9c-4.5-2.4-7.05-4.1-9.85-6.7c-2.55-2.35-3.45-3.55-6-7.95
			c0.05,0.8,0.05,0.8,0.1,1.85c0,0.35,0,0.7,0.05,1.05c0,0.7,0.05,1.2,0.05,1.5v6.05c0,3.4-1.3,4.4-5.7,4.4
			c-0.95,0-2.7-0.05-4.6-0.15c-0.2-1.9-0.45-3.1-1-4.7c1.8,0.35,3.6,0.55,5.45,0.55c0.6,0,1.15-0.1,1.5-0.2
			c0.25-0.1,0.35-0.4,0.35-1v-3.7c-5.15,2.85-6.7,3.6-12.4,5.95c-0.85,0.35-1.25,0.55-1.75,0.8l-2.05-4.25
			c1.5-0.3,2.45-0.55,4.55-1.3c3.9-1.35,5.7-2.15,11.65-5.25v-4.95h-8.6c-1.7,0-2.8,0.05-3.85,0.2v-3.9c1.05,0.15,2.05,0.2,3.75,0.2
			h8.7v-3.1h-10.1c-1.7,0-2.6,0.05-3.85,0.2v-4.05c1.1,0.15,1.85,0.2,3.75,0.2h10.2V160.71z M432.67,173.92
			c2.35,1.45,3.9,2.7,6.05,4.8l-2.75,2.8c-2.55-2.6-3.9-3.7-6.2-5.15L432.67,173.92z M455.48,160.71h-9.25v2.85h9.25V160.71z
			 M446.22,167.21v3.1h9.25v-3.1H446.22z M447.87,173.82c1.2,2.15,2.25,3.55,4.05,5.5c2.95-1.9,4.7-3.45,6.35-5.45
			c-0.95-0.05-1.45-0.05-2.05-0.05H447.87z"/>
		<path class="st13" d="M501.53,161.71c0.75,0,1,0,1.75-0.05c-4.9-2.65-8.1-5.3-11.6-9.6c-3.6,4.35-7.5,7.5-12.35,10h3.05
			c1.8,0,3.05-0.05,4.1-0.2c-0.15,1.05-0.2,2-0.2,3.65v4.1c0,1.85,0.05,2.8,0.15,3.65c-1.15-0.1-1.65-0.1-3.95-0.1h-7
			c-0.25,2-0.35,2.65-0.75,4.05h7.8c2.2,0,3.3-0.05,4.45-0.2c-0.1,1-0.1,1.15-0.15,1.95c-0.3,5.65-0.75,8.7-1.5,10.55
			c-0.8,1.9-2.2,2.5-5.7,2.5c-2.1,0-3.75-0.1-5.45-0.25c-0.25-1.75-0.45-2.9-0.9-4.45c2.3,0.5,4.3,0.75,6.1,0.75
			c1.6,0,2.15-0.3,2.5-1.35c0.35-1.15,0.6-2.85,0.75-5.9h-9.4c-1.75,0-1.75,0-3.55,0.1c1.15-3.45,1.75-6.4,2-9.4
			c0.05-0.55,0.05-0.55,0.05-2c1.35,0.1,2.4,0.15,4.05,0.15h6.55v-4.15h-2.05c-1.8,0-2.8,0.05-3.85,0.2v-2.3
			c-3.1,1.35-3.75,1.65-6.05,2.55c-0.75-1.75-1.1-2.35-2.15-3.75c4.1-1.15,6.8-2.2,9.9-3.9c-1.65-1.5-4.15-3.4-6.4-4.95l2.85-2.7
			c2.5,1.8,5.1,3.85,7,5.55c2.25-1.55,3.5-2.6,5.6-4.75h-6.9c-1.55,0-2.45,0.05-3.55,0.2v-4c1.3,0.2,2.15,0.25,4.35,0.25h8.35
			c2.3,0,3.3-0.05,4.4-0.2c0.55,1.9,1.45,3.1,3.95,5.3c2.3-2.1,3.65-3.65,4.45-5l3.5,2.35c-0.2,0.2-0.2,0.2-0.5,0.5l-0.2,0.2
			c-0.65,0.7-0.65,0.7-2.55,2.65c-0.25,0.3-0.6,0.55-1.75,1.65c1.25,0.9,1.95,1.35,3.3,2.15c2.4-2.15,4-3.9,5-5.45l3.45,2.4
			c-0.15,0.15-0.15,0.15-0.5,0.5c0,0-0.1,0.1-0.2,0.2c-0.7,0.75-3.15,3.05-4.4,4.1c2.45,1.1,4.2,1.7,7.5,2.5
			c-1.05,1.35-1.55,2.25-2.15,3.95c-3.2-1.1-5.05-1.85-7.45-3c-0.1,0.9-0.1,1.45-0.1,2.4v3.5c0,0.65,0.5,0.8,2.3,0.8
			c2.3,0,2.5-0.25,2.5-3.3c1.6,0.9,2.4,1.2,3.7,1.55c-0.4,4.4-1.2,5.05-6.4,5.05c-5,0-6-0.4-6-2.35v-5.15h-6
			c-0.35,2.5-0.65,3.6-1.5,5.05c-0.95,1.7-1.9,2.65-4.25,4.1c-1.05-1.35-1.65-1.95-2.95-2.9c3.6-1.9,4.95-4.3,4.95-8.85
			c0-0.25,0-0.55-0.05-1.1c1.05,0.15,1.95,0.2,3.6,0.2H501.53z M510.63,176.87c-0.4,0.4-0.5,0.55-1.1,1.35c-2.5,3.2-4,4.85-6.25,6.7
			c3.55,1.65,6.7,2.5,11.4,3.1c-0.95,1.6-1.5,2.7-2,4.2c-5.4-1.1-9.1-2.45-12.95-4.7c-3.45,2.2-6.5,3.5-11.35,4.9
			c-0.6-1.7-0.95-2.55-1.9-3.95c3.95-0.8,6.4-1.65,9.7-3.4c-2.15-1.7-3.25-2.75-5.2-5.15l2.7-1.65h-1.7c-1.95,0-2.55,0.05-3.6,0.15
			v-3.9c1.4,0.15,2.25,0.2,4.15,0.2h12.55c1.75,0,2.45-0.05,3.25-0.2L510.63,176.87z M494.32,178.27c1.95,2.15,3.2,3.25,5.3,4.65
			c1.9-1.4,3.05-2.45,5.05-4.65H494.32z"/>
		<path class="st13" d="M560.08,178.57c-4.8,4.05-5.35,4.5-6.8,5.5c3.5,2.1,6.4,3.1,11.65,4.15c-1.35,1.45-1.95,2.4-2.75,4.25
			c-6.9-2-11.15-4.2-15.4-8v3.9c-4.55,1.15-6.4,1.55-17.7,3.65c-0.8,0.15-1,0.2-1.85,0.4l-0.85-4.8c0.6,0.05,0.6,0.05,0.7,0.05
			c1.1,0,2.8-0.2,5.6-0.6v-10.7h-5.85c-1,7.25-2.35,11.35-5.3,16.3c-1.5-1.8-2.35-2.65-3.75-3.7c2-3.05,3.15-5.85,4-10
			c1.05-5.1,1.6-13.05,1.6-23.25c0-4.2-0.05-5.45-0.25-7.65c1.65,0.2,3.45,0.25,6.35,0.25h26.75c2.7,0,4.15-0.05,5.55-0.2
			c-0.1,1.35-0.15,2.4-0.15,4.2v3.7c0,1.95,0.05,2.95,0.15,4.1c-2-0.1-3.35-0.15-5.25-0.15h-3.5v4.05h3.5c2.75,0,3.6-0.05,4.8-0.2
			v4.2c-1.25-0.15-2.95-0.2-4.85-0.2h-3.45v4.75h5c2.7,0,4.3-0.1,5.55-0.25v4.3c-1.7-0.15-3.35-0.25-5.45-0.25h-1.6L560.08,178.57z
			 M535.92,160.16v-0.2h-8.2c-0.05,6-0.15,8.75-0.5,12.6h8.7v-4.75h-2.35c-1.9,0-3.05,0.05-4.4,0.2v-4.2c1.2,0.15,2.3,0.2,4.4,0.2
			h2.35V160.16z M557.33,156.36v-4.2h-29.55v4.2H557.33z M537.07,176.37v10c3.65-0.55,3.65-0.55,9.65-1.95
			c-2.75-2.6-4.1-4.5-5.65-8.05H537.07z M548.72,164.01v-4.05h-8.5v4.05H548.72z M548.72,172.57v-4.75h-8.5v4.75H548.72z
			 M545.62,176.37c1.05,2.25,2.15,3.55,4.35,5.4c2.45-1.7,4.15-3.2,5.95-5.4H545.62z"/>
		<path class="st13" d="M571.42,152.06c-1.15,0.05-1.75,0.1-2.55,0.25v-4.5c1.05,0.15,2.2,0.25,3.95,0.25h8.65c1.95,0,3-0.05,4-0.25
			v4.4c-0.8-0.1-1.05-0.1-2.05-0.15v35c0,2.4,0.05,3.8,0.25,5.2h-4.35c0.15-1.3,0.25-2.85,0.25-5.3v-4.25
			c-2.3,0.75-2.3,0.75-8.75,2.55c-0.8,0.2-0.95,0.25-1.6,0.55l-1-4.55c0.6,0,1.55-0.15,3.2-0.45V152.06z M575.27,158.71h4.3v-6.65
			h-4.3V158.71z M575.27,168.56h4.3v-6.25h-4.3V168.56z M575.27,179.92c1.45-0.3,2.3-0.55,4.3-1.15v-6.6h-4.3V179.92z
			 M609.18,148.06c-1.85,3.3-3.25,5.3-5.25,7.75c0.85,1.1,1.15,1.45,1.9,2.5c1.85-2.65,2.5-3.7,3.95-6.45l3.4,2.15
			c-2.65,3.95-4.25,6.1-8.05,10.55c1.65-0.15,3.45-0.3,5.15-0.5c-0.45-1.15-0.65-1.6-1.35-2.9l3-1.25c1.8,3.45,2.55,5.35,3.5,9
			l-3.55,1.05c-0.25-1.35-0.3-1.75-0.6-2.8c-2,0.3-5.7,0.7-11.2,1.25l0.2,0.9l-3.45,1c-0.25-1.3-0.3-1.7-0.5-2.6
			c-4.25,0.6-4.25,0.6-10.35,1.15c-0.3,0.05-0.75,0.1-1.4,0.2l-0.45-4c0.3,0.05,0.45,0.05,0.8,0.05c0.05,0,0.2,0,0.4,0s0.5,0,0.9,0
			c1.9-2.2,2.25-2.55,3.35-3.95c-1.4-2.05-3.1-4-5.4-6.2l2.45-2.8c0.65,0.6,0.85,0.8,1.35,1.35c1.55-2.3,2.8-4.7,3.75-7.25l3.7,1.75
			c-1.9,3.45-3.15,5.35-5.15,8c0.85,1,1,1.15,1.7,2.05c1.8-2.5,2.55-3.7,3.75-6.05l2.3,1.35l1.8-2.15c0.9,0.9,1.2,1.25,1.8,1.95
			c1.6-2.05,2.85-4.3,3.9-6.8L609.18,148.06z M589.77,181.82c0,1.25,0.05,1.95,0.15,2.55h-4.15c0.15-1,0.25-1.8,0.25-2.65v-7.85
			c0-1-0.05-1.75-0.2-2.55h4.1c-0.1,0.85-0.15,1.6-0.15,2.75v3.95h4.25c0.15-1.5,0.15-1.75,0.15-3.05c0-2.5-0.05-3.35-0.25-4.4h4.35
			c-0.1,0.95-0.1,0.95-0.15,4.55c0,5.6-0.9,9.45-2.75,12.2c-1.6,2.35-3.3,3.7-7.1,5.65c-0.75-1.4-1.25-2.05-2.65-3.45
			c3.65-1.6,5.15-2.65,6.45-4.5c0.7-1,1.05-1.8,1.4-3.2H589.77z M597.42,160.41c0.85,1.9,1.15,2.7,1.7,4.4c0.3,0,0.55,0,0.7,0
			c0.2,0,0.5,0,0.85-0.05c1.45-1.7,1.85-2.1,2.8-3.4c-1.6-2.35-3.35-4.45-5.15-6.25c-2.55,3.75-4.85,6.65-7.75,9.85
			c2.15-0.2,2.6-0.25,4.95-0.55c-0.4-1.2-0.55-1.65-1.2-3L597.42,160.41z M604.98,188.42c0,1.35,0.05,2.5,0.25,3.75h-4.5
			c0.15-1.2,0.25-2.1,0.25-3.7v-14.8c0-1-0.05-2.15-0.15-3.15h4.35c-0.15,0.85-0.2,1.55-0.2,3.15v4.4h4.55v-3.9
			c0-1.1-0.05-1.8-0.2-2.85h4.2c-0.1,0.9-0.15,1.7-0.15,2.8v7.55c0,1.05,0.05,1.85,0.2,2.75h-4.25c0.15-0.85,0.15-1.3,0.2-2.55
			h-4.55V188.42z"/>
		<path class="st13" d="M644.27,146.06c2.6,2.65,5.4,4.65,9.5,6.9c4.2,2.25,7.7,3.7,12.05,4.9c-1.1,1.55-1.5,2.35-2.15,4.4
			c-2.25-0.9-3.15-1.25-4.4-1.85c0,0.25-0.05,0.3-0.05,0.5c-0.05,1.75-0.05,2.1-0.05,3.8v4.5c0,2,0.05,3.3,0.15,4.5
			c-1.2-0.1-2.85-0.15-4.75-0.15h-25.2c-2,0-3.3,0.05-4.75,0.2c0.15-1.15,0.25-2.75,0.25-4.4v-4.7c0-1.4,0-2-0.15-3.9
			c-0.95,0.4-1.85,0.8-4.1,1.7c-0.75-1.95-1.2-2.75-2.3-4.25c4.95-1.55,8.5-3.1,12.35-5.35c3.95-2.4,6.55-4.45,8.55-6.8H644.27z
			 M654.37,160.16c2,0,2.95,0,4.2-0.05c-3.35-1.6-4.8-2.35-7.95-4.2v2.35c-1-0.15-2.35-0.2-3.65-0.2h-9.5c-1.9,0-2.75,0.05-3.85,0.2
			v-2.3c-3.65,2.25-5.05,3.05-7.4,4.15c1,0.05,2.05,0.05,3.15,0.05H654.37z M627.27,180.62c0-1.95-0.05-3.55-0.2-4.95
			c2.25,0.1,4.15,0.15,6,0.15h18.95c2.35,0,3.8-0.05,4.85-0.2c-0.15,1.15-0.2,2.2-0.2,4.8v6.8c0,2.3,0.1,3.8,0.3,5.25h-4.55v-1.95
			h-20.9v1.85h-4.55c0.2-1.55,0.3-2.95,0.3-5.1V180.62z M628.92,163.46v6.9h10.9v-6.9H628.92z M634.22,170.17
			c-0.8-1.85-1.6-3.25-2.8-4.9l3.05-1.45c1.25,1.7,2.15,3.2,2.9,4.75L634.22,170.17z M631.52,181.62h20.9v-2.55h-20.9V181.62z
			 M631.52,187.32h20.9v-2.55h-20.9V187.32z M646.87,154.76c0.7,0,1.1,0,1.8-0.05c-2.85-1.85-4.5-3.15-6.9-5.4
			c-2.5,2.55-4.05,3.9-6.3,5.4c0.65,0.05,1.15,0.05,2,0.05H646.87z M643.67,170.37h11.45v-6.9h-11.45V170.37z M646.42,168.56
			c1.2-1.45,2.05-2.85,2.85-4.6l3.2,1.5c-0.85,1.65-1.7,2.9-3.05,4.65L646.42,168.56z"/>
	</g>
</g>
<g>
	<g>
		<linearGradient id="SVGID_1_" gradientUnits="userSpaceOnUse" x1="164.4406" y1="125.9598" x2="259.6808" y2="125.9598">
			<stop  offset="0" style="stop-color:#00838E"/>
			<stop  offset="0.1506" style="stop-color:#008B84"/>
			<stop  offset="0.7357" style="stop-color:#5CAC4C"/>
			<stop  offset="1" style="stop-color:#83BB26"/>
		</linearGradient>
		<path style="fill:none;stroke:url(#SVGID_1_);stroke-width:6;stroke-linecap:round;stroke-miterlimit:10;" d="M256.68,107.69
			V92.85c0-6.33-5.18-11.51-11.51-11.51h-25.65c-6.33,0-11.51,5.18-11.51,11.51v17.54c0,6.33-5.18,11.51-11.51,11.51h-17.54
			c-6.33,0-11.51,5.18-11.51,11.51v25.65c0,6.33,5.18,11.51,11.51,11.51h39.84c6.33,0,15.56-3.23,20.51-7.19l11.31-9.04"/>
	</g>
	<g>
		
			<linearGradient id="SVGID_00000141413283626228673710000013096883104632426680_" gradientUnits="userSpaceOnUse" x1="205.0089" y1="166.5282" x2="300.2492" y2="166.5282">
			<stop  offset="0" style="stop-color:#0095DB"/>
			<stop  offset="0.2515" style="stop-color:#0084C8"/>
			<stop  offset="0.7943" style="stop-color:#005897"/>
			<stop  offset="1" style="stop-color:#004785"/>
		</linearGradient>
		
			<path style="fill:none;stroke:url(#SVGID_00000141413283626228673710000013096883104632426680_);stroke-width:6;stroke-linecap:round;stroke-miterlimit:10;" d="
			M208.01,184.79v14.84c0,6.33,5.18,11.51,11.51,11.51h25.65c6.33,0,11.51-5.18,11.51-11.51v-17.54c0-6.33,5.18-11.51,11.51-11.51
			h17.54c6.33,0,11.51-5.18,11.51-11.51v-25.65c0-6.33-5.18-11.51-11.51-11.51H245.9c-6.33,0-15.56,3.23-20.51,7.19l-11.31,9.04"/>
	</g>
	<circle class="st24" cx="256.4" cy="148.64" r="8.11"/>
	<circle class="st25" cx="208.35" cy="143.85" r="8.11"/>
</g>
<linearGradient id="SVGID_00000109000578167267196110000011529284008727111853_" gradientUnits="userSpaceOnUse" x1="333.851" y1="194.1483" x2="333.851" y2="98.3397">
	<stop  offset="0" style="stop-color:#0095DB"/>
	<stop  offset="0.4661" style="stop-color:#00A796"/>
	<stop  offset="0.835" style="stop-color:#6DB54D"/>
	<stop  offset="1" style="stop-color:#83BB26"/>
</linearGradient>
<line style="fill:none;stroke:url(#SVGID_00000109000578167267196110000011529284008727111853_);stroke-width:6;stroke-linecap:round;stroke-miterlimit:10;" x1="333.85" y1="101.34" x2="333.85" y2="191.15"/>
<g>
	<path class="st21" d="M372.23,204.07c-0.11-0.49-0.39-0.83-0.83-1.02c-0.25-0.11-0.52-0.16-0.82-0.16c-0.58,0-1.05,0.22-1.42,0.65
		c-0.37,0.43-0.56,1.08-0.56,1.96c0,0.88,0.2,1.5,0.6,1.86s0.86,0.55,1.37,0.55c0.5,0,0.91-0.14,1.23-0.43
		c0.32-0.29,0.52-0.66,0.59-1.13h-1.65v-1.19h2.98v3.83h-0.99l-0.15-0.89c-0.29,0.34-0.55,0.58-0.78,0.71
		c-0.39,0.24-0.88,0.36-1.45,0.36c-0.95,0-1.72-0.33-2.33-0.98c-0.63-0.66-0.94-1.56-0.94-2.7c0-1.16,0.32-2.08,0.95-2.78
		c0.64-0.7,1.48-1.05,2.52-1.05c0.91,0,1.64,0.23,2.19,0.69c0.55,0.46,0.87,1.03,0.95,1.72H372.23z"/>
	<path class="st21" d="M378.17,203.58c0.02,0,0.06,0,0.12,0.01V205c-0.09-0.01-0.16-0.02-0.23-0.02c-0.07,0-0.12,0-0.16,0
		c-0.56,0-0.93,0.18-1.12,0.54c-0.11,0.2-0.16,0.52-0.16,0.94v2.52h-1.39v-5.28h1.32v0.92c0.21-0.35,0.4-0.59,0.56-0.72
		c0.26-0.22,0.59-0.33,1.01-0.33C378.13,203.58,378.15,203.58,378.17,203.58z"/>
	<path class="st21" d="M382.74,203.81c0.37,0.17,0.67,0.42,0.91,0.78c0.22,0.31,0.36,0.68,0.42,1.09c0.04,0.24,0.05,0.59,0.05,1.05
		h-3.85c0.02,0.53,0.21,0.9,0.55,1.11c0.21,0.13,0.46,0.2,0.76,0.2c0.31,0,0.57-0.08,0.77-0.24c0.11-0.09,0.2-0.21,0.28-0.36h1.41
		c-0.04,0.31-0.21,0.63-0.51,0.96c-0.47,0.51-1.14,0.77-1.99,0.77c-0.7,0-1.32-0.22-1.86-0.65c-0.54-0.43-0.81-1.14-0.81-2.11
		c0-0.92,0.24-1.62,0.73-2.1s1.11-0.73,1.89-0.73C381.95,203.56,382.37,203.64,382.74,203.81z M380.67,205
		c-0.19,0.2-0.32,0.47-0.37,0.82h2.38c-0.03-0.37-0.15-0.64-0.37-0.83c-0.22-0.19-0.49-0.29-0.82-0.29
		C381.14,204.7,380.87,204.8,380.67,205z"/>
	<path class="st21" d="M387.1,205.77c0.26-0.03,0.44-0.07,0.55-0.12c0.2-0.08,0.3-0.21,0.3-0.39c0-0.22-0.08-0.37-0.23-0.45
		c-0.15-0.08-0.38-0.12-0.67-0.12c-0.33,0-0.56,0.08-0.7,0.24c-0.1,0.12-0.16,0.28-0.2,0.49h-1.33c0.03-0.46,0.16-0.84,0.39-1.14
		c0.37-0.47,1-0.7,1.89-0.7c0.58,0,1.1,0.12,1.55,0.34c0.45,0.23,0.68,0.66,0.68,1.3v2.42c0,0.17,0,0.37,0.01,0.61
		c0.01,0.18,0.04,0.3,0.08,0.37c0.04,0.06,0.11,0.12,0.2,0.16v0.2h-1.5c-0.04-0.11-0.07-0.21-0.09-0.3
		c-0.02-0.09-0.03-0.2-0.04-0.32c-0.19,0.21-0.41,0.38-0.66,0.53c-0.3,0.17-0.64,0.26-1.01,0.26c-0.48,0-0.88-0.14-1.19-0.41
		c-0.31-0.27-0.47-0.66-0.47-1.16c0-0.65,0.25-1.12,0.76-1.41c0.28-0.16,0.68-0.27,1.22-0.34L387.1,205.77z M387.95,206.42
		c-0.09,0.05-0.18,0.1-0.27,0.13s-0.21,0.07-0.37,0.09L387,206.7c-0.29,0.05-0.51,0.12-0.63,0.19c-0.22,0.13-0.33,0.32-0.33,0.59
		c0,0.24,0.07,0.41,0.2,0.51c0.13,0.11,0.29,0.16,0.48,0.16c0.3,0,0.58-0.09,0.83-0.26c0.25-0.17,0.39-0.49,0.4-0.96V206.42z"/>
	<path class="st21" d="M390.19,204.73v-0.98h0.74v-1.47h1.37v1.47h0.86v0.98h-0.86v2.79c0,0.22,0.03,0.35,0.08,0.4
		c0.05,0.05,0.22,0.08,0.5,0.08c0.04,0,0.09,0,0.13,0c0.05,0,0.09,0,0.14-0.01v1.03l-0.65,0.02c-0.65,0.02-1.1-0.09-1.34-0.34
		c-0.15-0.16-0.23-0.4-0.23-0.73v-3.25H390.19z"/>
	<path class="st21" d="M397.67,203.81c0.37,0.17,0.67,0.42,0.91,0.78c0.22,0.31,0.36,0.68,0.42,1.09c0.04,0.24,0.05,0.59,0.05,1.05
		h-3.85c0.02,0.53,0.21,0.9,0.55,1.11c0.21,0.13,0.46,0.2,0.76,0.2c0.31,0,0.57-0.08,0.77-0.24c0.11-0.09,0.2-0.21,0.28-0.36h1.41
		c-0.04,0.31-0.21,0.63-0.51,0.96c-0.47,0.51-1.14,0.77-1.99,0.77c-0.7,0-1.32-0.22-1.86-0.65c-0.54-0.43-0.81-1.14-0.81-2.11
		c0-0.92,0.24-1.62,0.73-2.1s1.11-0.73,1.89-0.73C396.89,203.56,397.31,203.64,397.67,203.81z M395.61,205
		c-0.19,0.2-0.32,0.47-0.37,0.82h2.38c-0.03-0.37-0.15-0.64-0.37-0.83c-0.22-0.19-0.49-0.29-0.82-0.29
		C396.08,204.7,395.8,204.8,395.61,205z"/>
	<path class="st21" d="M402.88,203.58c0.02,0,0.06,0,0.12,0.01V205c-0.09-0.01-0.16-0.02-0.23-0.02c-0.07,0-0.12,0-0.16,0
		c-0.56,0-0.93,0.18-1.12,0.54c-0.11,0.2-0.16,0.52-0.16,0.94v2.52h-1.39v-5.28h1.32v0.92c0.21-0.35,0.4-0.59,0.56-0.72
		c0.26-0.22,0.59-0.33,1.01-0.33C402.84,203.58,402.87,203.58,402.88,203.58z"/>
	<path class="st21" d="M412.4,202.6c0.22,0.3,0.33,0.67,0.33,1.09c0,0.44-0.11,0.79-0.33,1.05c-0.12,0.15-0.3,0.28-0.54,0.41
		c0.36,0.13,0.64,0.34,0.83,0.63c0.19,0.29,0.28,0.64,0.28,1.05c0,0.42-0.11,0.8-0.32,1.14c-0.13,0.22-0.3,0.41-0.51,0.56
		c-0.23,0.17-0.5,0.29-0.81,0.36c-0.31,0.06-0.65,0.1-1.01,0.1h-3.22v-7.14h3.45C411.42,201.85,412.04,202.11,412.4,202.6z
		 M408.52,203.08v1.58h1.74c0.31,0,0.56-0.06,0.75-0.18c0.19-0.12,0.29-0.33,0.29-0.63c0-0.33-0.13-0.55-0.38-0.66
		c-0.22-0.07-0.5-0.11-0.84-0.11H408.52z M408.52,205.84v1.9h1.73c0.31,0,0.55-0.04,0.72-0.13c0.31-0.16,0.47-0.45,0.47-0.89
		c0-0.37-0.15-0.63-0.46-0.77c-0.17-0.08-0.41-0.12-0.71-0.12H408.52z"/>
	<path class="st21" d="M416.42,205.77c0.26-0.03,0.44-0.07,0.55-0.12c0.2-0.08,0.3-0.21,0.3-0.39c0-0.22-0.08-0.37-0.23-0.45
		c-0.15-0.08-0.38-0.12-0.67-0.12c-0.33,0-0.56,0.08-0.7,0.24c-0.1,0.12-0.16,0.28-0.2,0.49h-1.33c0.03-0.46,0.16-0.84,0.39-1.14
		c0.37-0.47,1-0.7,1.89-0.7c0.58,0,1.1,0.12,1.55,0.34c0.45,0.23,0.68,0.66,0.68,1.3v2.42c0,0.17,0,0.37,0.01,0.61
		c0.01,0.18,0.04,0.3,0.08,0.37c0.04,0.06,0.11,0.12,0.2,0.16v0.2h-1.5c-0.04-0.11-0.07-0.21-0.09-0.3
		c-0.02-0.09-0.03-0.2-0.04-0.32c-0.19,0.21-0.41,0.38-0.66,0.53c-0.3,0.17-0.64,0.26-1.01,0.26c-0.48,0-0.88-0.14-1.19-0.41
		c-0.31-0.27-0.47-0.66-0.47-1.16c0-0.65,0.25-1.12,0.76-1.41c0.28-0.16,0.68-0.27,1.22-0.34L416.42,205.77z M417.26,206.42
		c-0.09,0.05-0.18,0.1-0.27,0.13s-0.21,0.07-0.37,0.09l-0.31,0.06c-0.29,0.05-0.51,0.12-0.63,0.19c-0.22,0.13-0.33,0.32-0.33,0.59
		c0,0.24,0.07,0.41,0.2,0.51c0.13,0.11,0.29,0.16,0.48,0.16c0.3,0,0.58-0.09,0.83-0.26c0.25-0.17,0.39-0.49,0.4-0.96V206.42z"/>
	<path class="st21" d="M420.25,210l0.17,0.01c0.14,0.01,0.26,0,0.39-0.01c0.12-0.02,0.23-0.05,0.31-0.11
		c0.08-0.05,0.16-0.17,0.23-0.34c0.07-0.17,0.1-0.28,0.09-0.32l-1.94-5.51h1.54l1.15,3.9l1.09-3.9h1.47l-1.81,5.19
		c-0.35,1-0.63,1.62-0.83,1.86c-0.2,0.24-0.61,0.36-1.22,0.36c-0.12,0-0.22,0-0.3,0c-0.07,0-0.19-0.01-0.33-0.02V210z"/>
	<path class="st21" d="M433.57,201.84h2.15v7.14h-1.39v-4.83c0-0.14,0-0.33,0-0.58s0-0.44,0-0.58l-1.35,5.99h-1.45l-1.34-5.99
		c0,0.14,0,0.33,0,0.58s0,0.44,0,0.58v4.83h-1.39v-7.14h2.17l1.3,5.62L433.57,201.84z"/>
	<path class="st21" d="M440.62,203.81c0.37,0.17,0.67,0.42,0.91,0.78c0.22,0.31,0.36,0.68,0.42,1.09c0.04,0.24,0.05,0.59,0.05,1.05
		h-3.85c0.02,0.53,0.21,0.9,0.55,1.11c0.21,0.13,0.46,0.2,0.76,0.2c0.31,0,0.57-0.08,0.77-0.24c0.11-0.09,0.2-0.21,0.28-0.36h1.41
		c-0.04,0.31-0.21,0.63-0.51,0.96c-0.47,0.51-1.14,0.77-1.99,0.77c-0.7,0-1.32-0.22-1.86-0.65c-0.54-0.43-0.81-1.14-0.81-2.11
		c0-0.92,0.24-1.62,0.73-2.1s1.11-0.73,1.89-0.73C439.84,203.56,440.25,203.64,440.62,203.81z M438.56,205
		c-0.19,0.2-0.32,0.47-0.37,0.82h2.38c-0.03-0.37-0.15-0.64-0.37-0.83c-0.22-0.19-0.49-0.29-0.82-0.29
		C439.03,204.7,438.75,204.8,438.56,205z"/>
	<path class="st21" d="M445.7,203.79c0.25,0.14,0.45,0.33,0.61,0.58v-2.52h1.4v7.13h-1.34v-0.73c-0.2,0.31-0.42,0.54-0.67,0.68
		c-0.25,0.14-0.57,0.21-0.94,0.21c-0.62,0-1.14-0.25-1.56-0.75s-0.63-1.14-0.63-1.92c0-0.9,0.21-1.61,0.62-2.13s0.97-0.78,1.66-0.78
		C445.16,203.58,445.45,203.65,445.7,203.79z M446.04,207.55c0.2-0.29,0.3-0.67,0.3-1.13c0-0.65-0.16-1.11-0.49-1.39
		c-0.2-0.17-0.43-0.25-0.7-0.25c-0.4,0-0.7,0.15-0.89,0.46c-0.19,0.31-0.28,0.68-0.28,1.14c0,0.49,0.1,0.88,0.29,1.17
		c0.19,0.29,0.48,0.44,0.88,0.44S445.83,207.84,446.04,207.55z"/>
	<path class="st21" d="M450.58,203.07h-1.4v-1.27h1.4V203.07z M449.18,203.7h1.4v5.28h-1.4V203.7z"/>
	<path class="st21" d="M455.27,205.6c-0.03-0.2-0.09-0.38-0.2-0.53c-0.16-0.21-0.4-0.32-0.72-0.32c-0.47,0-0.79,0.23-0.96,0.69
		c-0.09,0.25-0.14,0.57-0.14,0.98c0,0.39,0.04,0.7,0.14,0.93c0.17,0.44,0.48,0.66,0.93,0.66c0.32,0,0.55-0.09,0.69-0.26
		s0.22-0.4,0.25-0.68h1.41c-0.03,0.42-0.18,0.82-0.46,1.19c-0.43,0.6-1.08,0.91-1.93,0.91s-1.48-0.25-1.88-0.76
		c-0.4-0.5-0.6-1.16-0.6-1.96c0-0.91,0.22-1.61,0.67-2.12c0.44-0.5,1.05-0.76,1.83-0.76c0.66,0,1.21,0.15,1.63,0.45
		c0.42,0.3,0.67,0.82,0.75,1.57H455.27z"/>
	<path class="st21" d="M459.92,205.77c0.26-0.03,0.44-0.07,0.55-0.12c0.2-0.08,0.3-0.21,0.3-0.39c0-0.22-0.08-0.37-0.23-0.45
		c-0.15-0.08-0.38-0.12-0.67-0.12c-0.33,0-0.56,0.08-0.7,0.24c-0.1,0.12-0.16,0.28-0.2,0.49h-1.33c0.03-0.46,0.16-0.84,0.39-1.14
		c0.37-0.47,1-0.7,1.89-0.7c0.58,0,1.1,0.12,1.55,0.34c0.45,0.23,0.68,0.66,0.68,1.3v2.42c0,0.17,0,0.37,0.01,0.61
		c0.01,0.18,0.04,0.3,0.08,0.37c0.04,0.06,0.11,0.12,0.2,0.16v0.2h-1.5c-0.04-0.11-0.07-0.21-0.09-0.3
		c-0.02-0.09-0.03-0.2-0.04-0.32c-0.19,0.21-0.41,0.38-0.66,0.53c-0.3,0.17-0.64,0.26-1.01,0.26c-0.48,0-0.88-0.14-1.19-0.41
		c-0.31-0.27-0.47-0.66-0.47-1.16c0-0.65,0.25-1.12,0.76-1.41c0.28-0.16,0.68-0.27,1.22-0.34L459.92,205.77z M460.76,206.42
		c-0.09,0.05-0.18,0.1-0.27,0.13s-0.21,0.07-0.37,0.09l-0.31,0.06c-0.29,0.05-0.51,0.12-0.63,0.19c-0.22,0.13-0.33,0.32-0.33,0.59
		c0,0.24,0.07,0.41,0.2,0.51c0.13,0.11,0.29,0.16,0.48,0.16c0.3,0,0.58-0.09,0.83-0.26c0.25-0.17,0.39-0.49,0.4-0.96V206.42z"/>
	<path class="st21" d="M464.96,208.98h-1.38v-7.14h1.38V208.98z"/>
	<path class="st21" d="M471.55,205.77c0.26-0.03,0.44-0.07,0.55-0.12c0.2-0.08,0.3-0.21,0.3-0.39c0-0.22-0.08-0.37-0.23-0.45
		c-0.15-0.08-0.38-0.12-0.67-0.12c-0.33,0-0.56,0.08-0.7,0.24c-0.1,0.12-0.16,0.28-0.2,0.49h-1.33c0.03-0.46,0.16-0.84,0.39-1.14
		c0.37-0.47,1-0.7,1.89-0.7c0.58,0,1.1,0.12,1.55,0.34c0.45,0.23,0.68,0.66,0.68,1.3v2.42c0,0.17,0,0.37,0.01,0.61
		c0.01,0.18,0.04,0.3,0.08,0.37c0.04,0.06,0.11,0.12,0.2,0.16v0.2h-1.5c-0.04-0.11-0.07-0.21-0.09-0.3
		c-0.02-0.09-0.03-0.2-0.04-0.32c-0.19,0.21-0.41,0.38-0.66,0.53c-0.3,0.17-0.64,0.26-1.01,0.26c-0.48,0-0.88-0.14-1.19-0.41
		c-0.31-0.27-0.47-0.66-0.47-1.16c0-0.65,0.25-1.12,0.76-1.41c0.28-0.16,0.68-0.27,1.22-0.34L471.55,205.77z M472.39,206.42
		c-0.09,0.05-0.18,0.1-0.27,0.13s-0.21,0.07-0.37,0.09l-0.31,0.06c-0.29,0.05-0.51,0.12-0.63,0.19c-0.22,0.13-0.33,0.32-0.33,0.59
		c0,0.24,0.07,0.41,0.2,0.51c0.13,0.11,0.29,0.16,0.48,0.16c0.3,0,0.58-0.09,0.83-0.26c0.25-0.17,0.39-0.49,0.4-0.96V206.42z"/>
	<path class="st21" d="M479.43,204c0.35,0.29,0.52,0.76,0.52,1.42v3.56h-1.42v-3.21c0-0.28-0.04-0.49-0.11-0.64
		c-0.13-0.27-0.39-0.41-0.77-0.41c-0.46,0-0.78,0.2-0.96,0.6c-0.09,0.21-0.13,0.48-0.13,0.8v2.86h-1.38v-5.27h1.34v0.77
		c0.18-0.27,0.34-0.47,0.5-0.59c0.28-0.21,0.64-0.32,1.08-0.32C478.64,203.58,479.09,203.72,479.43,204z"/>
	<path class="st21" d="M484.23,203.79c0.25,0.14,0.45,0.33,0.61,0.58v-2.52h1.4v7.13h-1.34v-0.73c-0.2,0.31-0.42,0.54-0.67,0.68
		c-0.25,0.14-0.57,0.21-0.94,0.21c-0.62,0-1.14-0.25-1.56-0.75s-0.63-1.14-0.63-1.92c0-0.9,0.21-1.61,0.62-2.13s0.97-0.78,1.66-0.78
		C483.7,203.58,483.99,203.65,484.23,203.79z M484.57,207.55c0.2-0.29,0.3-0.67,0.3-1.13c0-0.65-0.16-1.11-0.49-1.39
		c-0.2-0.17-0.43-0.25-0.7-0.25c-0.4,0-0.7,0.15-0.89,0.46c-0.19,0.31-0.28,0.68-0.28,1.14c0,0.49,0.1,0.88,0.29,1.17
		c0.19,0.29,0.48,0.44,0.88,0.44S484.37,207.84,484.57,207.55z"/>
	<path class="st21" d="M490.75,208.98v-7.14h1.48v2.72h2.78v-2.72h1.48v7.14h-1.48v-3.19h-2.78v3.19H490.75z"/>
	<path class="st21" d="M501.45,203.81c0.37,0.17,0.67,0.42,0.91,0.78c0.22,0.31,0.36,0.68,0.42,1.09c0.04,0.24,0.05,0.59,0.05,1.05
		h-3.85c0.02,0.53,0.21,0.9,0.55,1.11c0.21,0.13,0.46,0.2,0.76,0.2c0.31,0,0.57-0.08,0.77-0.24c0.11-0.09,0.2-0.21,0.28-0.36h1.41
		c-0.04,0.31-0.21,0.63-0.51,0.96c-0.47,0.51-1.14,0.77-1.99,0.77c-0.7,0-1.32-0.22-1.86-0.65c-0.54-0.43-0.81-1.14-0.81-2.11
		c0-0.92,0.24-1.62,0.73-2.1s1.11-0.73,1.89-0.73C500.67,203.56,501.08,203.64,501.45,203.81z M499.39,205
		c-0.19,0.2-0.32,0.47-0.37,0.82h2.38c-0.03-0.37-0.15-0.64-0.37-0.83c-0.22-0.19-0.49-0.29-0.82-0.29
		C499.86,204.7,499.58,204.8,499.39,205z"/>
	<path class="st21" d="M505.82,205.77c0.26-0.03,0.44-0.07,0.55-0.12c0.2-0.08,0.3-0.21,0.3-0.39c0-0.22-0.08-0.37-0.23-0.45
		c-0.15-0.08-0.38-0.12-0.67-0.12c-0.33,0-0.56,0.08-0.7,0.24c-0.1,0.12-0.16,0.28-0.2,0.49h-1.33c0.03-0.46,0.16-0.84,0.39-1.14
		c0.37-0.47,1-0.7,1.89-0.7c0.58,0,1.1,0.12,1.55,0.34c0.45,0.23,0.68,0.66,0.68,1.3v2.42c0,0.17,0,0.37,0.01,0.61
		c0.01,0.18,0.04,0.3,0.08,0.37c0.04,0.06,0.11,0.12,0.2,0.16v0.2h-1.5c-0.04-0.11-0.07-0.21-0.09-0.3
		c-0.02-0.09-0.03-0.2-0.04-0.32c-0.19,0.21-0.41,0.38-0.66,0.53c-0.3,0.17-0.64,0.26-1.01,0.26c-0.48,0-0.88-0.14-1.19-0.41
		c-0.31-0.27-0.47-0.66-0.47-1.16c0-0.65,0.25-1.12,0.76-1.41c0.28-0.16,0.68-0.27,1.22-0.34L505.82,205.77z M506.66,206.42
		c-0.09,0.05-0.18,0.1-0.27,0.13s-0.21,0.07-0.37,0.09l-0.31,0.06c-0.29,0.05-0.51,0.12-0.63,0.19c-0.22,0.13-0.33,0.32-0.33,0.59
		c0,0.24,0.07,0.41,0.2,0.51c0.13,0.11,0.29,0.16,0.48,0.16c0.3,0,0.58-0.09,0.83-0.26c0.25-0.17,0.39-0.49,0.4-0.96V206.42z"/>
	<path class="st21" d="M510.86,208.98h-1.38v-7.14h1.38V208.98z"/>
	<path class="st21" d="M511.86,204.73v-0.98h0.74v-1.47h1.37v1.47h0.86v0.98h-0.86v2.79c0,0.22,0.03,0.35,0.08,0.4
		c0.05,0.05,0.22,0.08,0.5,0.08c0.04,0,0.09,0,0.13,0c0.05,0,0.09,0,0.14-0.01v1.03l-0.65,0.02c-0.65,0.02-1.1-0.09-1.34-0.34
		c-0.15-0.16-0.23-0.4-0.23-0.73v-3.25H511.86z"/>
	<path class="st21" d="M519.7,203.73c0.27,0.11,0.48,0.29,0.65,0.52c0.14,0.2,0.23,0.4,0.26,0.61c0.03,0.21,0.05,0.55,0.05,1.02v3.1
		h-1.41v-3.22c0-0.28-0.05-0.51-0.14-0.69c-0.12-0.25-0.36-0.37-0.71-0.37c-0.36,0-0.64,0.12-0.82,0.37s-0.28,0.59-0.28,1.05v2.86
		h-1.38v-7.12h1.38v2.52c0.2-0.31,0.43-0.52,0.69-0.64c0.26-0.12,0.54-0.18,0.83-0.18C519.14,203.56,519.43,203.62,519.7,203.73z"/>
	<path class="st21" d="M525.32,205.6c-0.03-0.2-0.09-0.38-0.2-0.53c-0.16-0.21-0.4-0.32-0.72-0.32c-0.47,0-0.79,0.23-0.96,0.69
		c-0.09,0.25-0.14,0.57-0.14,0.98c0,0.39,0.04,0.7,0.14,0.93c0.17,0.44,0.48,0.66,0.93,0.66c0.32,0,0.55-0.09,0.69-0.26
		s0.22-0.4,0.25-0.68h1.41c-0.03,0.42-0.18,0.82-0.46,1.19c-0.43,0.6-1.08,0.91-1.93,0.91s-1.48-0.25-1.88-0.76
		c-0.4-0.5-0.6-1.16-0.6-1.96c0-0.91,0.22-1.61,0.67-2.12c0.44-0.5,1.05-0.76,1.83-0.76c0.66,0,1.21,0.15,1.63,0.45
		c0.42,0.3,0.67,0.82,0.75,1.57H525.32z"/>
	<path class="st21" d="M529.97,205.77c0.26-0.03,0.44-0.07,0.55-0.12c0.2-0.08,0.3-0.21,0.3-0.39c0-0.22-0.08-0.37-0.23-0.45
		c-0.15-0.08-0.38-0.12-0.67-0.12c-0.33,0-0.56,0.08-0.7,0.24c-0.1,0.12-0.16,0.28-0.2,0.49h-1.33c0.03-0.46,0.16-0.84,0.39-1.14
		c0.37-0.47,1-0.7,1.89-0.7c0.58,0,1.1,0.12,1.55,0.34c0.45,0.23,0.68,0.66,0.68,1.3v2.42c0,0.17,0,0.37,0.01,0.61
		c0.01,0.18,0.04,0.3,0.08,0.37c0.04,0.06,0.11,0.12,0.2,0.16v0.2h-1.5c-0.04-0.11-0.07-0.21-0.09-0.3
		c-0.02-0.09-0.03-0.2-0.04-0.32c-0.19,0.21-0.41,0.38-0.66,0.53c-0.3,0.17-0.64,0.26-1.01,0.26c-0.48,0-0.88-0.14-1.19-0.41
		c-0.31-0.27-0.47-0.66-0.47-1.16c0-0.65,0.25-1.12,0.76-1.41c0.28-0.16,0.68-0.27,1.22-0.34L529.97,205.77z M530.82,206.42
		c-0.09,0.05-0.18,0.1-0.27,0.13s-0.21,0.07-0.37,0.09l-0.31,0.06c-0.29,0.05-0.51,0.12-0.63,0.19c-0.22,0.13-0.33,0.32-0.33,0.59
		c0,0.24,0.07,0.41,0.2,0.51c0.13,0.11,0.29,0.16,0.48,0.16c0.3,0,0.58-0.09,0.83-0.26c0.25-0.17,0.39-0.49,0.4-0.96V206.42z"/>
	<path class="st21" d="M536.53,203.58c0.02,0,0.06,0,0.12,0.01V205c-0.09-0.01-0.16-0.02-0.23-0.02c-0.07,0-0.12,0-0.16,0
		c-0.56,0-0.93,0.18-1.12,0.54c-0.11,0.2-0.16,0.52-0.16,0.94v2.52h-1.39v-5.28h1.32v0.92c0.21-0.35,0.4-0.59,0.56-0.72
		c0.26-0.22,0.59-0.33,1.01-0.33C536.49,203.58,536.51,203.58,536.53,203.58z"/>
	<path class="st21" d="M541.1,203.81c0.37,0.17,0.67,0.42,0.91,0.78c0.22,0.31,0.36,0.68,0.42,1.09c0.04,0.24,0.05,0.59,0.05,1.05
		h-3.85c0.02,0.53,0.21,0.9,0.55,1.11c0.21,0.13,0.46,0.2,0.76,0.2c0.31,0,0.57-0.08,0.77-0.24c0.11-0.09,0.2-0.21,0.28-0.36h1.41
		c-0.04,0.31-0.21,0.63-0.51,0.96c-0.47,0.51-1.14,0.77-1.99,0.77c-0.7,0-1.32-0.22-1.86-0.65c-0.54-0.43-0.81-1.14-0.81-2.11
		c0-0.92,0.24-1.62,0.73-2.1s1.11-0.73,1.89-0.73C540.32,203.56,540.73,203.64,541.1,203.81z M539.03,205
		c-0.19,0.2-0.32,0.47-0.37,0.82h2.38c-0.03-0.37-0.15-0.64-0.37-0.83c-0.22-0.19-0.49-0.29-0.82-0.29
		C539.5,204.7,539.23,204.8,539.03,205z"/>
	<path class="st21" d="M550.62,202c0.5,0.17,0.91,0.47,1.22,0.91c0.25,0.36,0.42,0.74,0.51,1.15c0.09,0.41,0.14,0.81,0.14,1.18
		c0,0.95-0.19,1.75-0.57,2.41c-0.52,0.89-1.32,1.33-2.4,1.33h-3.08v-7.14h3.08C549.96,201.85,550.33,201.9,550.62,202z
		 M547.89,203.08v4.66h1.38c0.71,0,1.2-0.35,1.47-1.04c0.15-0.38,0.23-0.83,0.23-1.36c0-0.73-0.11-1.28-0.34-1.67
		c-0.23-0.39-0.68-0.58-1.36-0.58H547.89z"/>
	<path class="st21" d="M557.13,203.81c0.37,0.17,0.67,0.42,0.91,0.78c0.22,0.31,0.36,0.68,0.42,1.09c0.04,0.24,0.05,0.59,0.05,1.05
		h-3.85c0.02,0.53,0.21,0.9,0.55,1.11c0.21,0.13,0.46,0.2,0.76,0.2c0.31,0,0.57-0.08,0.77-0.24c0.11-0.09,0.2-0.21,0.28-0.36h1.41
		c-0.04,0.31-0.21,0.63-0.51,0.96c-0.47,0.51-1.14,0.77-1.99,0.77c-0.7,0-1.32-0.22-1.86-0.65c-0.54-0.43-0.81-1.14-0.81-2.11
		c0-0.92,0.24-1.62,0.73-2.1s1.11-0.73,1.89-0.73C556.35,203.56,556.77,203.64,557.13,203.81z M555.07,205
		c-0.19,0.2-0.32,0.47-0.37,0.82h2.38c-0.03-0.37-0.15-0.64-0.37-0.83c-0.22-0.19-0.49-0.29-0.82-0.29
		C555.54,204.7,555.26,204.8,555.07,205z"/>
	<path class="st21" d="M562.66,203.7h1.48l-1.91,5.28h-1.46l-1.89-5.28h1.55l1.1,3.9L562.66,203.7z"/>
	<path class="st21" d="M568.57,203.81c0.37,0.17,0.67,0.42,0.91,0.78c0.22,0.31,0.36,0.68,0.42,1.09c0.04,0.24,0.05,0.59,0.05,1.05
		h-3.85c0.02,0.53,0.21,0.9,0.55,1.11c0.21,0.13,0.46,0.2,0.76,0.2c0.31,0,0.57-0.08,0.77-0.24c0.11-0.09,0.2-0.21,0.28-0.36h1.41
		c-0.04,0.31-0.21,0.63-0.51,0.96c-0.47,0.51-1.14,0.77-1.99,0.77c-0.7,0-1.32-0.22-1.86-0.65c-0.54-0.43-0.81-1.14-0.81-2.11
		c0-0.92,0.24-1.62,0.73-2.1s1.11-0.73,1.89-0.73C567.79,203.56,568.2,203.64,568.57,203.81z M566.5,205
		c-0.19,0.2-0.32,0.47-0.37,0.82h2.38c-0.03-0.37-0.15-0.64-0.37-0.83c-0.22-0.19-0.49-0.29-0.82-0.29
		C566.97,204.7,566.7,204.8,566.5,205z"/>
	<path class="st21" d="M572.25,208.98h-1.38v-7.14h1.38V208.98z"/>
	<path class="st21" d="M578.2,208.34c-0.45,0.55-1.12,0.83-2.03,0.83c-0.91,0-1.58-0.28-2.03-0.83c-0.45-0.55-0.67-1.21-0.67-1.99
		c0-0.76,0.22-1.42,0.67-1.98c0.45-0.56,1.12-0.84,2.03-0.84c0.91,0,1.58,0.28,2.03,0.84c0.45,0.56,0.67,1.22,0.67,1.98
		C578.87,207.13,578.65,207.79,578.2,208.34z M577.1,207.57c0.22-0.29,0.33-0.7,0.33-1.22c0-0.53-0.11-0.94-0.33-1.22
		c-0.22-0.29-0.53-0.43-0.93-0.43c-0.4,0-0.71,0.14-0.93,0.43c-0.22,0.29-0.33,0.69-0.33,1.22c0,0.53,0.11,0.94,0.33,1.22
		s0.53,0.43,0.93,0.43C576.57,208,576.88,207.86,577.1,207.57z"/>
	<path class="st21" d="M584.5,204.27c0.43,0.46,0.65,1.12,0.65,2.01c0,0.93-0.21,1.64-0.63,2.13c-0.42,0.49-0.96,0.73-1.63,0.73
		c-0.42,0-0.77-0.11-1.05-0.32c-0.15-0.12-0.3-0.29-0.45-0.51v2.75h-1.37v-7.36h1.32v0.78c0.15-0.23,0.31-0.41,0.48-0.54
		c0.31-0.24,0.68-0.35,1.1-0.35C583.54,203.59,584.07,203.81,584.5,204.27z M583.44,205.26c-0.19-0.31-0.49-0.47-0.91-0.47
		c-0.51,0-0.85,0.24-1.04,0.71c-0.1,0.25-0.15,0.57-0.15,0.96c0,0.61,0.16,1.04,0.49,1.29c0.2,0.15,0.43,0.22,0.7,0.22
		c0.39,0,0.68-0.15,0.89-0.45c0.2-0.3,0.31-0.69,0.31-1.19C583.72,205.94,583.63,205.58,583.44,205.26z"/>
	<path class="st21" d="M592.91,203.72c0.23,0.09,0.43,0.25,0.62,0.47c0.15,0.18,0.25,0.41,0.3,0.68c0.03,0.18,0.05,0.44,0.05,0.78
		l-0.01,3.33h-1.42v-3.36c0-0.2-0.03-0.37-0.1-0.49c-0.12-0.25-0.35-0.37-0.68-0.37c-0.38,0-0.64,0.16-0.79,0.47
		c-0.07,0.17-0.11,0.37-0.11,0.61v3.14h-1.39v-3.14c0-0.31-0.03-0.54-0.1-0.68c-0.12-0.26-0.34-0.38-0.68-0.38
		c-0.39,0-0.66,0.13-0.79,0.38c-0.07,0.14-0.11,0.36-0.11,0.65v3.18h-1.4v-5.27h1.34v0.77c0.17-0.27,0.33-0.47,0.48-0.59
		c0.27-0.21,0.62-0.31,1.04-0.31c0.4,0,0.73,0.09,0.98,0.27c0.2,0.17,0.35,0.38,0.46,0.63c0.18-0.31,0.41-0.54,0.67-0.68
		c0.28-0.14,0.6-0.22,0.95-0.22C592.45,203.59,592.68,203.63,592.91,203.72z"/>
	<path class="st21" d="M598.78,203.81c0.37,0.17,0.67,0.42,0.91,0.78c0.22,0.31,0.36,0.68,0.42,1.09c0.04,0.24,0.05,0.59,0.05,1.05
		h-3.85c0.02,0.53,0.21,0.9,0.55,1.11c0.21,0.13,0.46,0.2,0.76,0.2c0.31,0,0.57-0.08,0.77-0.24c0.11-0.09,0.2-0.21,0.28-0.36h1.41
		c-0.04,0.31-0.21,0.63-0.51,0.96c-0.47,0.51-1.14,0.77-1.99,0.77c-0.7,0-1.32-0.22-1.86-0.65c-0.54-0.43-0.81-1.14-0.81-2.11
		c0-0.92,0.24-1.62,0.73-2.1s1.11-0.73,1.89-0.73C598,203.56,598.41,203.64,598.78,203.81z M596.71,205
		c-0.19,0.2-0.32,0.47-0.37,0.82h2.38c-0.03-0.37-0.15-0.64-0.37-0.83c-0.22-0.19-0.49-0.29-0.82-0.29
		C597.18,204.7,596.91,204.8,596.71,205z"/>
	<path class="st21" d="M605.31,204c0.35,0.29,0.52,0.76,0.52,1.42v3.56h-1.42v-3.21c0-0.28-0.04-0.49-0.11-0.64
		c-0.13-0.27-0.39-0.41-0.77-0.41c-0.46,0-0.78,0.2-0.96,0.6c-0.09,0.21-0.13,0.48-0.13,0.8v2.86h-1.38v-5.27h1.34v0.77
		c0.18-0.27,0.34-0.47,0.5-0.59c0.28-0.21,0.64-0.32,1.08-0.32C604.52,203.58,604.97,203.72,605.31,204z"/>
	<path class="st21" d="M606.77,204.73v-0.98h0.74v-1.47h1.37v1.47h0.86v0.98h-0.86v2.79c0,0.22,0.03,0.35,0.08,0.4
		c0.05,0.05,0.22,0.08,0.5,0.08c0.04,0,0.09,0,0.13,0c0.05,0,0.09,0,0.14-0.01v1.03l-0.65,0.02c-0.65,0.02-1.1-0.09-1.34-0.34
		c-0.15-0.16-0.23-0.4-0.23-0.73v-3.25H606.77z"/>
	<path class="st21" d="M613.88,201.85h5.09v1.25h-3.61v1.64h3.16v1.24h-3.16v2.99h-1.48V201.85z"/>
	<path class="st21" d="M623.47,203.81c0.37,0.17,0.67,0.42,0.91,0.78c0.22,0.31,0.36,0.68,0.42,1.09c0.04,0.24,0.05,0.59,0.05,1.05
		h-3.85c0.02,0.53,0.21,0.9,0.55,1.11c0.21,0.13,0.46,0.2,0.76,0.2c0.31,0,0.57-0.08,0.77-0.24c0.11-0.09,0.2-0.21,0.28-0.36h1.41
		c-0.04,0.31-0.21,0.63-0.51,0.96c-0.47,0.51-1.14,0.77-1.99,0.77c-0.7,0-1.32-0.22-1.86-0.65c-0.54-0.43-0.81-1.14-0.81-2.11
		c0-0.92,0.24-1.62,0.73-2.1s1.11-0.73,1.89-0.73C622.69,203.56,623.11,203.64,623.47,203.81z M621.41,205
		c-0.19,0.2-0.32,0.47-0.37,0.82h2.38c-0.03-0.37-0.15-0.64-0.37-0.83c-0.22-0.19-0.49-0.29-0.82-0.29
		C621.88,204.7,621.6,204.8,621.41,205z"/>
	<path class="st21" d="M628.55,203.79c0.25,0.14,0.45,0.33,0.61,0.58v-2.52h1.4v7.13h-1.34v-0.73c-0.2,0.31-0.42,0.54-0.67,0.68
		c-0.25,0.14-0.57,0.21-0.94,0.21c-0.62,0-1.14-0.25-1.56-0.75s-0.63-1.14-0.63-1.92c0-0.9,0.21-1.61,0.62-2.13s0.97-0.78,1.66-0.78
		C628.02,203.58,628.3,203.65,628.55,203.79z M628.89,207.55c0.2-0.29,0.3-0.67,0.3-1.13c0-0.65-0.16-1.11-0.49-1.39
		c-0.2-0.17-0.43-0.25-0.7-0.25c-0.4,0-0.7,0.15-0.89,0.46c-0.19,0.31-0.28,0.68-0.28,1.14c0,0.49,0.1,0.88,0.29,1.17
		c0.19,0.29,0.48,0.44,0.88,0.44S628.68,207.84,628.89,207.55z"/>
	<path class="st21" d="M635.45,203.81c0.37,0.17,0.67,0.42,0.91,0.78c0.22,0.31,0.36,0.68,0.42,1.09c0.04,0.24,0.05,0.59,0.05,1.05
		h-3.85c0.02,0.53,0.21,0.9,0.55,1.11c0.21,0.13,0.46,0.2,0.76,0.2c0.31,0,0.57-0.08,0.77-0.24c0.11-0.09,0.2-0.21,0.28-0.36h1.41
		c-0.04,0.31-0.21,0.63-0.51,0.96c-0.47,0.51-1.14,0.77-1.99,0.77c-0.7,0-1.32-0.22-1.86-0.65c-0.54-0.43-0.81-1.14-0.81-2.11
		c0-0.92,0.24-1.62,0.73-2.1s1.11-0.73,1.89-0.73C634.67,203.56,635.08,203.64,635.45,203.81z M633.38,205
		c-0.19,0.2-0.32,0.47-0.37,0.82h2.38c-0.03-0.37-0.15-0.64-0.37-0.83c-0.22-0.19-0.49-0.29-0.82-0.29
		C633.85,204.7,633.58,204.8,633.38,205z"/>
	<path class="st21" d="M640.66,203.58c0.02,0,0.06,0,0.12,0.01V205c-0.09-0.01-0.16-0.02-0.23-0.02c-0.07,0-0.12,0-0.16,0
		c-0.56,0-0.93,0.18-1.12,0.54c-0.11,0.2-0.16,0.52-0.16,0.94v2.52h-1.39v-5.28h1.32v0.92c0.21-0.35,0.4-0.59,0.56-0.72
		c0.26-0.22,0.59-0.33,1.01-0.33C640.62,203.58,640.64,203.58,640.66,203.58z"/>
	<path class="st21" d="M643.88,205.77c0.26-0.03,0.44-0.07,0.55-0.12c0.2-0.08,0.3-0.21,0.3-0.39c0-0.22-0.08-0.37-0.23-0.45
		c-0.15-0.08-0.38-0.12-0.67-0.12c-0.33,0-0.56,0.08-0.7,0.24c-0.1,0.12-0.16,0.28-0.2,0.49h-1.33c0.03-0.46,0.16-0.84,0.39-1.14
		c0.37-0.47,1-0.7,1.89-0.7c0.58,0,1.1,0.12,1.55,0.34c0.45,0.23,0.68,0.66,0.68,1.3v2.42c0,0.17,0,0.37,0.01,0.61
		c0.01,0.18,0.04,0.3,0.08,0.37c0.04,0.06,0.11,0.12,0.2,0.16v0.2h-1.5c-0.04-0.11-0.07-0.21-0.09-0.3
		c-0.02-0.09-0.03-0.2-0.04-0.32c-0.19,0.21-0.41,0.38-0.66,0.53c-0.3,0.17-0.64,0.26-1.01,0.26c-0.48,0-0.88-0.14-1.19-0.41
		c-0.31-0.27-0.47-0.66-0.47-1.16c0-0.65,0.25-1.12,0.76-1.41c0.28-0.16,0.68-0.27,1.22-0.34L643.88,205.77z M644.72,206.42
		c-0.09,0.05-0.18,0.1-0.27,0.13s-0.21,0.07-0.37,0.09l-0.31,0.06c-0.29,0.05-0.51,0.12-0.63,0.19c-0.22,0.13-0.33,0.32-0.33,0.59
		c0,0.24,0.07,0.41,0.2,0.51c0.13,0.11,0.29,0.16,0.48,0.16c0.3,0,0.58-0.09,0.83-0.26c0.25-0.17,0.39-0.49,0.4-0.96V206.42z"/>
	<path class="st21" d="M646.96,204.73v-0.98h0.74v-1.47h1.37v1.47h0.86v0.98h-0.86v2.79c0,0.22,0.03,0.35,0.08,0.4
		c0.05,0.05,0.22,0.08,0.5,0.08c0.04,0,0.09,0,0.13,0c0.05,0,0.09,0,0.14-0.01v1.03l-0.65,0.02c-0.65,0.02-1.1-0.09-1.34-0.34
		c-0.15-0.16-0.23-0.4-0.23-0.73v-3.25H646.96z"/>
	<path class="st21" d="M652.42,203.07h-1.4v-1.27h1.4V203.07z M651.02,203.7h1.4v5.28h-1.4V203.7z"/>
	<path class="st21" d="M658.36,208.34c-0.45,0.55-1.12,0.83-2.03,0.83c-0.91,0-1.58-0.28-2.03-0.83c-0.45-0.55-0.67-1.21-0.67-1.99
		c0-0.76,0.22-1.42,0.67-1.98c0.45-0.56,1.12-0.84,2.03-0.84c0.91,0,1.58,0.28,2.03,0.84c0.45,0.56,0.67,1.22,0.67,1.98
		C659.03,207.13,658.81,207.79,658.36,208.34z M657.26,207.57c0.22-0.29,0.33-0.7,0.33-1.22c0-0.53-0.11-0.94-0.33-1.22
		c-0.22-0.29-0.53-0.43-0.93-0.43c-0.4,0-0.71,0.14-0.93,0.43c-0.22,0.29-0.33,0.69-0.33,1.22c0,0.53,0.11,0.94,0.33,1.22
		s0.53,0.43,0.93,0.43C656.73,208,657.04,207.86,657.26,207.57z"/>
	<path class="st21" d="M664.48,204c0.35,0.29,0.52,0.76,0.52,1.42v3.56h-1.42v-3.21c0-0.28-0.04-0.49-0.11-0.64
		c-0.13-0.27-0.39-0.41-0.77-0.41c-0.46,0-0.78,0.2-0.96,0.6c-0.09,0.21-0.13,0.48-0.13,0.8v2.86h-1.38v-5.27h1.34v0.77
		c0.18-0.27,0.34-0.47,0.5-0.59c0.28-0.21,0.64-0.32,1.08-0.32C663.69,203.58,664.13,203.72,664.48,204z"/>
</g>
</svg>
